<?xml version="1.0" encoding="UTF-8"?>
<svg width="100px" height="56px" viewBox="0 0 100 56" version="1.1" xmlns="http://www.w3.org/2000/svg" xmlns:xlink="http://www.w3.org/1999/xlink">
    <!-- Generator: sketchtool 52.1 (67048) - http://www.bohemiancoding.com/sketch -->
    <title>FB0C2D2A-B2E4-46CB-8288-4C9C9849D15E</title>
    <desc>Created with sketchtool.</desc>
    <g id="Icons" stroke="none" stroke-width="1" fill="none" fill-rule="evenodd">
        <g transform="translate(-99.000000, -882.000000)" id="ICONS/Logo/Logo-DES">
            <g transform="translate(99.000000, 882.000000)">
                <g id="ICONS/Logo-DES" transform="translate(49.804255, 27.880851) scale(-1, 1) rotate(-180.000000) translate(-49.804255, -27.880851) translate(-0.000000, 0.000000)">
                    <g id="g12" transform="translate(0.046706, 0.144567)" fill="#007A33" fill-rule="nonzero">
                        <polygon id="path14" points="12.0737586 0 0.0978609905 13.3008337 0.0978609905 42.2791252 12.0737586 55.5799589 87.2090758 55.5799589 99.1849734 42.2791252 99.1849734 13.3008337 87.2090758 0"></polygon>
                    </g>
                    <g id="g16" transform="translate(2.468161, 2.436484)" fill="#FFD400" fill-rule="nonzero">
                        <path d="M91.5063807,13.02695 L82.4469313,2.96537865 L11.993055,2.96537865 L2.9336056,13.02695 L2.9336056,37.9694288 L11.9924196,48.0306825 L82.4469313,48.0306825 L91.5063807,37.9694288 L91.5063807,13.02695 Z M83.635561,50.7008895 L10.8041075,50.7008895 L0.263716305,38.9941097 L0.263716305,12.0016337 L10.8041075,0.295171624 L83.635561,0.295171624 L94.1759523,12.0016337 L94.1759523,38.9941097 L83.635561,50.7008895 Z" id="path18"></path>
                    </g>
                    <g id="g20" transform="translate(11.676596, 16.204255)" fill="#FFD400" fill-rule="nonzero">
                        <g id="g22-Clipped" transform="translate(0.000000, 0.000000)">
                            <g id="g22" transform="translate(0.158864, 0.079431)">
                                <g id="g28" transform="translate(25.893637, 14.170780)">
                                    <path d="M4.44822684,1.27092195 C2.59268079,1.27092195 1.33986947,2.21902973 1.15622125,3.5474609 L0.137259571,3.5474609 L0.288499284,0.4877163 L1.07742409,0.4877163 C1.12158862,0.824828348 1.23406522,1.03611912 1.46918578,1.03611912 C1.7049418,1.03611912 2.56662689,0.252595738 4.60486797,0.252595738 C6.40798849,0.252595738 8.44654731,1.03611912 8.44654731,3.15283964 C8.44654731,5.58316014 6.25166509,5.97492184 4.44822684,6.05308354 C3.66438572,6.13124524 1.93974463,6.13124524 1.93974463,7.22900407 C1.93974463,7.93468349 2.72358575,8.40428915 4.05710061,8.40428915 C5.70262681,8.40428915 7.03518848,7.54260407 7.27030904,6.2882041 L8.21079128,6.2882041 L8.05859838,9.17859835 L7.19182961,9.17859835 C7.19182961,8.94284233 7.13527358,8.71820687 6.95670905,8.71820687 C6.48615019,8.71820687 5.78110624,9.42420402 3.82134459,9.42420402 C2.17486519,9.42420402 0.137259571,8.56124801 0.137259571,6.60148636 C0.137259571,4.32844244 2.25334462,4.09300415 3.89950629,3.93636302 C4.76214456,3.85820132 6.72190621,4.01452472 6.72190621,2.76012475 C6.72190621,2.05476307 6.0162268,1.27092195 4.44822684,1.27092195" id="path30"></path>
                                </g>
                                <g id="g32" transform="translate(56.530418, 14.406282)">
                                    <path d="M4.44822684,1.27092195 L3.82007366,1.27092195 C3.34951481,1.27092195 3.11502971,1.34908365 3.11502971,1.89812194 L3.11502971,7.46380691 C3.11502971,7.62140123 3.21193751,7.61727073 3.27167084,7.46380691 L5.85799702,0.252278008 L7.34783528,0.252278008 L10.0142295,7.46380691 C10.067926,7.62521399 10.1702352,7.61885938 10.1702352,7.46380691 L10.1702352,1.89812194 C10.1702352,1.34908365 9.93447918,1.27092195 9.54271749,1.27092195 L8.83703808,1.27092195 L8.83703808,0.252278008 L14.1774521,0.252278008 L14.1774521,1.27092195 C13.4345982,1.35670919 12.4435969,1.42756308 12.4435969,2.36836306 L12.4435969,6.83660692 C12.4435969,7.77772463 13.1928053,7.75929626 14.1730039,7.93245938 L14.1730039,8.95300971 L9.30823239,8.95300971 L7.11366791,2.91740135 L5.07510909,8.95300971 L0.215103541,8.95300971 L0.215103541,7.9337303 C0.919194303,7.77772463 1.9394269,7.85588633 1.9394269,6.91476862 L1.9394269,2.36836306 C1.9394269,1.42756308 0.998944656,1.34908365 0.215103541,1.27092195 L0.215103541,0.252278008 L4.44822684,0.252278008 L4.44822684,1.27092195 Z" id="path34"></path>
                                </g>
                                <g id="g36" transform="translate(0.150032, 0.438246)">
                                    <path d="M6.03687928,1.27092195 L4.52162258,1.27092195 C4.27156869,1.27092195 4.15591479,1.34272904 4.15591479,1.54194606 L4.15591479,4.11047933 L6.11567644,4.11047933 C6.89919983,4.11047933 7.91847923,3.95415593 7.91847923,2.77823539 C7.91847923,1.58547514 7.04154309,1.27092195 6.03687928,1.27092195 Z M4.15591479,7.45904095 C4.15591479,7.6951147 4.15591479,7.85207356 4.46951478,7.85207356 L6.11567644,7.85207356 C6.97831472,7.85207356 7.52639981,7.3939062 7.52639981,6.60974735 C7.52639981,5.59110341 6.74287643,5.19902398 5.95903531,5.19902398 L4.15591479,5.19902398 L4.15591479,7.45904095 Z M7.84063526,4.73418428 C8.78079978,4.89082541 9.80007919,5.51834312 9.80007919,6.61578423 C9.80007919,8.18346646 8.54599695,8.88247354 7.05615869,8.88247354 L0.159818436,8.88247354 L0.159818436,7.86954874 C1.14605387,7.70877711 1.88287087,7.64967924 1.88287087,6.84804522 L1.88287087,2.25270916 C1.88287087,1.9467347 1.89621556,1.33033756 0.164584393,1.20705813 L0.164584393,0.187460988 L6.42959417,0.187460988 C8.15391753,0.187460988 10.2709558,0.42258155 10.2709558,2.61746376 C10.2709558,4.02882259 9.17319693,4.65602258 7.84063526,4.73418428 Z" id="path38"></path>
                                </g>
                                <g id="g40" transform="translate(45.888957, 14.538140)">
                                    <path d="M9.21418417,3.17730489 L8.19490476,3.17730489 C7.96041966,2.15770775 7.72434591,1.2172255 6.23641403,1.2172255 L4.58898145,1.2172255 C4.19721975,1.2172255 4.19721975,1.29570493 4.19721975,1.45234606 L4.19721975,3.961146 L5.29434313,3.961146 C6.23641403,3.961146 6.23641403,3.01971056 6.23641403,2.5501049 L7.25442251,2.5501049 L7.25442251,6.46931048 L6.23641403,6.46931048 C6.23641403,6.15602821 6.23641403,5.05890484 5.37282256,5.05890484 L4.19721975,5.05890484 L4.19721975,7.48858988 C4.19721975,7.72402818 4.27601691,7.80187215 4.58898145,7.80187215 L6.23641403,7.80187215 C7.72434591,7.80187215 7.96041966,7.01866649 8.11769625,5.92090765 L9.13570474,5.92090765 L8.97969907,8.82115155 L0.199217016,8.82115155 L0.199217016,7.80187215 C0.916652459,7.70814165 1.9206808,7.62870903 1.92449357,6.78291047 L1.92449357,2.23650491 C1.92449357,1.37386663 1.29665812,1.29570493 0.199217016,1.1390638 L0.199217016,0.120419855 L9.05658984,0.120419855 L9.21418417,3.17730489 Z" id="path42"></path>
                                </g>
                                <g id="g44" transform="translate(5.058079, 14.170780)">
                                    <path d="M4.44822684,1.27092195 C2.59236306,1.27092195 1.33955174,2.21902973 1.15685671,3.5474609 L0.136941841,3.5474609 L0.288181553,0.4877163 L1.07774182,0.4877163 C1.12222409,0.824828348 1.23470068,1.03611912 1.46950351,1.03611912 C1.70462407,1.03611912 2.56694462,0.252595738 4.60486797,0.252595738 C6.40798849,0.252595738 8.44622958,1.03611912 8.44622958,3.15283964 C8.44622958,5.58316014 6.25166509,5.97492184 4.44822684,6.05308354 C3.66470345,6.13124524 1.93974463,6.13124524 1.93974463,7.22900407 C1.93974463,7.93468349 2.72390348,8.40428915 4.05614742,8.40428915 C5.70230908,8.40428915 7.03518848,7.54260407 7.27062677,6.2882041 L8.21142675,6.2882041 L8.05828065,9.17859835 L7.19151188,9.17859835 C7.19151188,8.94284233 7.13590904,8.71820687 6.95702678,8.71820687 C6.48646792,8.71820687 5.78078851,9.42420402 3.82102685,9.42420402 C2.17454746,9.42420402 0.136941841,8.56124801 0.136941841,6.60148636 C0.136941841,4.32844244 2.25366236,4.09300415 3.89950629,3.93636302 C4.7615091,3.85820132 6.72158848,4.01452472 6.72158848,2.76012475 C6.72158848,2.05476307 6.01590907,1.27092195 4.44822684,1.27092195" id="path46"></path>
                                </g>
                                <g id="g48" transform="translate(66.267745, 0.424266)">
                                    <path d="M9.53191466,8.89645368 L0.439421266,8.89645368 L0.281826943,6.00256439 L1.2140482,6.00256439 C1.41294748,7.02152607 1.67539287,7.88352888 3.18207084,7.88352888 L3.84612756,7.88352888 L3.84612756,2.31816164 C3.84612756,1.45552337 3.33966516,1.3776794 2.1624737,1.22103827 L2.1624737,0.193180137 L7.80759129,0.193180137 L7.80759129,1.22103827 C6.70951473,1.3776794 6.1204424,1.45552337 6.1204424,2.31816164 L6.1204424,7.88352888 L6.76988352,7.88352888 C7.76310903,7.88352888 8.49516007,7.62870903 8.75728772,6.00256439 L9.68823806,6.00256439 L9.53191466,8.89645368 Z" id="path50"></path>
                                </g>
                                <g id="g52" transform="translate(11.577464, 0.216692)">
                                    <path d="M5.4014183,1.27092195 C3.8340538,1.27092195 2.57965384,2.36868079 2.57965384,4.71988641 C2.57965384,7.07204521 3.8340538,8.32739837 5.4014183,8.32739837 C7.04853316,8.32739837 8.30229766,6.99388351 8.30229766,4.71988641 C8.30229766,2.27145526 7.04853316,1.27092195 5.4014183,1.27092195 M5.4014183,9.34636005 C2.42301271,9.34636005 0.14933333,7.69988066 0.14933333,4.71988641 C0.14933333,1.58515741 2.50117441,0.155687939 5.4014183,0.155687939 C8.3807771,0.155687939 10.7319827,1.58515741 10.7319827,4.71988641 C10.7319827,7.69988066 8.3807771,9.34636005 5.4014183,9.34636005" id="path54"></path>
                                </g>
                                <g id="g56" transform="translate(44.270819, 0.345151)">
                                    <path d="M6.03687928,3.49503537 L6.58496437,3.49503537 C7.13368493,3.49503537 7.60424378,3.33807651 7.60424378,2.6323971 C7.60424378,1.92671768 6.78513458,1.14255884 5.56695589,1.14255884 C3.92015877,1.14255884 2.43032051,2.24031767 2.43032051,4.59152329 C2.43032051,6.86520267 3.84136161,8.19903526 5.48720554,8.19903526 C6.9770438,8.19903526 8.15232887,7.57151754 8.3880849,6.08167928 L9.40704657,6.08167928 L9.40704657,8.98192318 L8.3880849,8.98192318 C8.3880849,8.6444934 8.27592603,8.51168206 8.15232887,8.51168206 C7.76056718,8.51168206 6.8207204,9.21799693 5.01791761,9.21799693 C2.5094354,9.21799693 0.000953191466,7.49240265 0.000953191466,4.59152329 C0.000953191466,1.53463826 2.66480561,0.027324822 5.01791761,0.027324822 C7.21248209,0.027324822 7.89846221,0.868992886 8.27338419,0.868992886 C8.52820404,0.868992886 8.62352319,0.568737574 8.62352319,0.280556021 L9.56305224,0.280556021 L9.56305224,2.4760737 C9.56305224,3.33807651 10.19057,3.49503537 10.975682,3.49503537 L10.975682,4.59152329 L6.03687928,4.59152329 L6.03687928,3.49503537 Z" id="path58"></path>
                                </g>
                                <g id="g60" transform="translate(56.034282, 0.444441)">
                                    <path d="M6.03687928,1.27092195 L4.3894467,1.27092195 C4.06567933,1.27092195 3.99832047,1.36147514 3.99832047,1.56069216 L3.99832047,4.01420699 L5.09512611,4.01420699 C6.03687928,4.01420699 6.03687928,3.07372475 6.03687928,2.60316589 L7.05584096,2.60316589 L7.05584096,6.5226892 L6.03687928,6.5226892 C6.03687928,6.20940694 6.03687928,5.1116481 5.17424101,5.1116481 L3.99832047,5.1116481 L3.99832047,7.54165088 C3.99832047,7.77708917 4.07648217,7.85525087 4.3894467,7.85525087 L6.03687928,7.85525087 C7.52608208,7.85525087 7.76120264,7.07204521 7.91784377,5.97365091 L8.93648772,5.97365091 L8.78016432,8.87453027 L0,8.87453027 L0,7.85525087 C0.717753174,7.76152037 1.72241698,7.68177002 1.72495882,6.83628919 L1.72495882,2.2895659 C1.72495882,1.42756308 1.09712338,1.34908365 0,1.19148933 L0,0.172527655 L8.85864375,0.172527655 L9.01496715,3.23036588 L7.9963232,3.23036588 C7.76120264,2.21172193 7.52608208,1.27092195 6.03687928,1.27092195" id="path62"></path>
                                </g>
                                <g id="g64" transform="translate(35.351711, 14.462742)">
                                    <path d="M9.53191466,8.89645368 L0.438785805,8.89645368 L0.281826943,5.99620978 L1.2140482,5.99620978 C1.41199429,7.01517146 1.67443967,7.87717427 3.18238857,7.87717427 L3.84580983,7.87717427 L3.84580983,2.31180703 C3.84580983,1.44916876 3.33871197,1.37100706 2.1634269,1.21436593 L2.1634269,0.195721981 L7.80727356,0.195721981 L7.80727356,1.21436593 C6.70951473,1.37100706 6.11917148,1.44916876 6.11917148,2.31180703 L6.11917148,7.87717427 L6.76988352,7.87717427 C7.76342676,7.87717427 8.49388915,7.62203669 8.7560168,5.99620978 L9.68792033,5.99620978 L9.53191466,8.89645368 Z" id="path66"></path>
                                </g>
                                <g id="g68" transform="translate(14.223873, 14.550563)">
                                    <path d="M6.67234026,2.22411342 L6.67234026,3.79179565 L9.1811402,7.08380124 C9.57353735,7.55467783 9.89666926,7.71131896 10.7491402,7.71131896 L10.7491402,8.80876006 L6.75145515,8.80876006 L6.75145515,7.71131896 C7.82379555,7.71481399 8.01951753,7.53497854 7.53783811,6.86583813 C7.53783811,6.86583813 6.42800551,5.45416157 6.28121403,5.28163391 C6.21353743,5.17868923 6.13791758,5.15771902 6.045458,5.28163391 C5.50468071,6.00447077 4.79074031,6.92747784 4.79074031,6.92747784 C4.17910912,7.64967924 4.86731335,7.71131896 5.57521688,7.71131896 L5.57521688,8.80876006 L0.244652476,8.80876006 L0.244652476,7.71131896 C1.19657302,7.71227215 1.52542408,7.55118279 1.81233471,7.16291613 L4.3999318,3.79179565 L4.3999318,2.22411342 C4.3999318,1.31381557 3.75207934,1.28331344 2.73311766,1.12667231 L2.73311766,0.108028366 L8.35853596,0.108028366 L8.35853596,1.12667231 C7.41455868,1.30555458 6.67234026,1.30396592 6.67234026,2.22411342" id="path70"></path>
                                </g>
                                <g id="g72" transform="translate(23.133671, 0.452512)">
                                    <path d="M5.71914879,1.27092195 L4.44727365,1.27092195 C4.13430912,1.27092195 4.05582969,1.34940138 4.05582969,1.50604252 L4.05582969,6.75812749 C4.05582969,7.38500974 4.44727365,7.69860974 5.78078851,7.8555686 L5.78078851,8.87484801 L0.0362212757,8.87484801 L0.0362212757,7.8399998 C0.994496429,7.75198846 1.76086237,7.56770478 1.76086237,6.83628919 L1.76086237,2.28988363 C1.76086237,1.42724535 1.13398011,1.34940138 0.0362212757,1.19276025 L0.0362212757,0.173163116 L8.46306929,0.173163116 L8.61907496,3.23068361 L7.67859272,3.23068361 C7.36499272,2.05476307 7.20835159,1.27092195 5.71914879,1.27092195" id="path74"></path>
                                </g>
                                <g id="g76" transform="translate(32.711180, 0.501538)">
                                    <path d="M3.81276586,3.49503537 L5.19330483,6.99960266 C5.272102,7.23408776 5.42906086,7.23408776 5.50722256,6.99960266 L6.87441685,3.49503537 L3.81276586,3.49503537 Z M9.74479408,2.00583257 L6.80578706,8.81924517 L4.72751194,8.81924517 L1.74910634,2.00583257 C1.51366805,1.50921982 1.36973614,1.27155742 0.0241475171,1.14382976 L0.0241475171,0.124232621 L4.09999422,0.124232621 L4.09999422,1.14382976 L3.39495027,1.14382976 C3.00287085,1.14382976 2.92439142,1.30047089 3.00287085,1.53527372 L3.37207367,2.4760737 L7.32972464,2.4760737 L7.69066647,1.53527372 C7.73610193,1.39928507 7.77581825,1.12826096 7.34338705,1.12826096 L6.59322537,1.12826096 L6.59386083,0.124232621 L11.390638,0.124232621 L11.390638,1.22199146 C10.2150352,1.22199146 9.90175294,1.69191485 9.74479408,2.00583257 Z" id="path78"></path>
                                </g>
                            </g>
                        </g>
                    </g>
                </g>
            </g>
        </g>
    </g>
</svg>